HIERARCHY
ROOT hip
{
  OFFSET 0 0 0
  CHANNELS 6 Xposition Yposition Zposition Zrotation Yrotation Xrotation
  JOINT abdomen
  {
    OFFSET 0 20.6881 -0.73152
    CHANNELS 3 Zrotation Xrotation Yrotation
    JOINT chest
    {
      OFFSET 0 11.7043 -0.48768
      CHANNELS 3 Zrotation Xrotation Yrotation
      JOINT neck
      {
        OFFSET 0 22.1894 -2.19456
        CHANNELS 3 Zrotation Xrotation Yrotation
        JOINT head
        {
          OFFSET -0.24384 7.07133 1.2192
          CHANNELS 3 Zrotation Xrotation Yrotation
          JOINT leftEye
          {
            OFFSET 4.14528 8.04674 8.04672
            CHANNELS 3 Zrotation Xrotation Yrotation
            End Site
            {
              OFFSET 1 0 0
            }
          }
          JOINT rightEye
          {
            OFFSET -3.6576 8.04674 8.04672
            CHANNELS 3 Zrotation Xrotation Yrotation
            End Site
            {
              OFFSET 1 0 0
            }
          }
        }
      }
      JOINT rCollar
      {
        OFFSET -2.68224 19.2634 -4.8768
        CHANNELS 3 Zrotation Xrotation Yrotation
        JOINT rShldr
        {
          OFFSET -8.77824 -1.95073 1.46304
          CHANNELS 3 Zrotation Xrotation Yrotation
          JOINT rForeArm
          {
            OFFSET -28.1742 -1.7115 0.48768
            CHANNELS 3 Zrotation Xrotation Yrotation
            JOINT rHand
            {
              OFFSET -22.5879 0.773209 7.07136
              CHANNELS 3 Zrotation Xrotation Yrotation
              JOINT rThumb1
              {
                OFFSET -1.2192 -0.487915 3.41376
                CHANNELS 3 Zrotation Xrotation Yrotation
                JOINT rThumb2
                {
                  OFFSET -3.37035 -0.52449 3.41376
                  CHANNELS 3 Zrotation Xrotation Yrotation
                  End Site
                  {
                    OFFSET -1.78271 -1.18214 1.43049
                  }
                }
              }
              JOINT rIndex1
              {
                OFFSET -7.75947 0.938293 5.60832
                CHANNELS 3 Zrotation Xrotation Yrotation
                JOINT rIndex2
                {
                  OFFSET -2.54057 -0.884171 1.56538
                  CHANNELS 3 Zrotation Xrotation Yrotation
                  End Site
                  {
                    OFFSET -1.62519 -0.234802 1.16502
                  }
                }
              }
              JOINT rMid1
              {
                OFFSET -8.24714 1.18213 3.41376
                CHANNELS 3 Zrotation Xrotation Yrotation
                JOINT rMid2
                {
                  OFFSET -3.10165 -0.590103 1.0647
                  CHANNELS 3 Zrotation Xrotation Yrotation
                  End Site
                  {
                    OFFSET -2.48547 -0.328903 0.83742
                  }
                }
              }
              JOINT rRing1
              {
                OFFSET -8.82822 0.546677 1.51678
                CHANNELS 3 Zrotation Xrotation Yrotation
                JOINT rRing2
                {
                  OFFSET -2.60934 -0.819778 -0.0198488
                  CHANNELS 3 Zrotation Xrotation Yrotation
                  End Site
                  {
                    OFFSET -2.33842 -0.294052 0.168128
                  }
                }
              }
              JOINT rPinky1
              {
                OFFSET -8.27202 -0.0477905 -0.4584
                CHANNELS 3 Zrotation Xrotation Yrotation
                JOINT rPinky2
                {
                  OFFSET -1.82734 -0.647385 -0.700984
                  CHANNELS 3 Zrotation Xrotation Yrotation
                  End Site
                  {
                    OFFSET -1.69225 -0.51767 -0.607171
                  }
                }
              }
            }
          }
        }
      }
      JOINT lCollar
      {
        OFFSET 2.68224 19.2634 -4.8768
        CHANNELS 3 Zrotation Xrotation Yrotation
        JOINT lShldr
        {
          OFFSET 8.77824 -1.95073 1.46304
          CHANNELS 3 Zrotation Xrotation Yrotation
          JOINT lForeArm
          {
            OFFSET 28.1742 -1.7115 0.48768
            CHANNELS 3 Zrotation Xrotation Yrotation
            JOINT lHand
            {
              OFFSET 22.5879 0.773209 7.07136
              CHANNELS 3 Zrotation Xrotation Yrotation
              JOINT lThumb1
              {
                OFFSET 1.2192 -0.487915 3.41376
                CHANNELS 3 Zrotation Xrotation Yrotation
                JOINT lThumb2
                {
                  OFFSET 3.37035 -0.52449 3.41376
                  CHANNELS 3 Zrotation Xrotation Yrotation
                  End Site
                  {
                    OFFSET 1.78271 -1.18214 1.43049
                  }
                }
              }
              JOINT lIndex1
              {
                OFFSET 7.75947 0.938293 5.60832
                CHANNELS 3 Zrotation Xrotation Yrotation
                JOINT lIndex2
                {
                  OFFSET 2.54057 -0.884171 1.56538
                  CHANNELS 3 Zrotation Xrotation Yrotation
                  End Site
                  {
                    OFFSET 1.62519 -0.234802 1.16502
                  }
                }
              }
              JOINT lMid1
              {
                OFFSET 8.24714 1.18213 3.41376
                CHANNELS 3 Zrotation Xrotation Yrotation
                JOINT lMid2
                {
                  OFFSET 3.10165 -0.590103 1.0647
                  CHANNELS 3 Zrotation Xrotation Yrotation
                  End Site
                  {
                    OFFSET 2.48547 -0.328903 0.83742
                  }
                }
              }
              JOINT lRing1
              {
                OFFSET 8.82822 0.546677 1.51678
                CHANNELS 3 Zrotation Xrotation Yrotation
                JOINT lRing2
                {
                  OFFSET 2.60934 -0.819778 -0.0198488
                  CHANNELS 3 Zrotation Xrotation Yrotation
                  End Site
                  {
                    OFFSET 2.33842 -0.294052 0.168128
                  }
                }
              }
              JOINT lPinky1
              {
                OFFSET 8.27202 -0.0477905 -0.4584
                CHANNELS 3 Zrotation Xrotation Yrotation
                JOINT lPinky2
                {
                  OFFSET 1.82734 -0.647385 -0.700984
                  CHANNELS 3 Zrotation Xrotation Yrotation
                  End Site
                  {
                    OFFSET 1.69225 -0.51767 -0.607171
                  }
                }
              }
            }
          }
        }
      }
    }
  }
  JOINT rButtock
  {
    OFFSET -8.77824 4.35084 1.2192
    CHANNELS 3 Zrotation Xrotation Yrotation
    JOINT rThigh
    {
      OFFSET 0 -1.70687 -2.19456
      CHANNELS 3 Zrotation Xrotation Yrotation
      JOINT rShin
      {
        OFFSET 0 -36.8199 0.73152
        CHANNELS 3 Zrotation Xrotation Yrotation
        JOINT rFoot
        {
          OFFSET 0.73152 -45.1104 -5.12064
          CHANNELS 3 Zrotation Xrotation Yrotation
          End Site
          {
            OFFSET -1.1221 -3.69964 12.103
          }
        }
      }
    }
  }
  JOINT lButtock
  {
    OFFSET 8.77824 4.35084 1.2192
    CHANNELS 3 Zrotation Xrotation Yrotation
    JOINT lThigh
    {
      OFFSET 0 -1.70687 -2.19456
      CHANNELS 3 Zrotation Xrotation Yrotation
      JOINT lShin
      {
        OFFSET 0 -36.8199 0.73152
        CHANNELS 3 Zrotation Xrotation Yrotation
        JOINT lFoot
        {
          OFFSET -0.73152 -45.1104 -5.12064
          CHANNELS 3 Zrotation Xrotation Yrotation
          End Site
          {
            OFFSET 1.1221 -3.69964 12.103
          }
        }
      }
    }
  }
}
MOTION
Frames:	4
Frame Time:	0.00833333
-30.8423 85.2982 20.1692 0.0 0.0 0.0 0.984354 -0.00436094 0.0272514 0.271545 -0.0045535 0.0470445 -6.61937e-16 -1.59028e-15 -4.47265e-16 -1.66482e-15 -6.36111e-15 -1.34024e-15 -0.0 0.0 0.0 -0.0 0.0 0.0 -5.10937e-17 -1.20358e-17 0.0 -2.40531e-15 -5.5287e-16 -3.97569e-15 -8.33902e-14 2.04748e-14 -8.5875e-14 -9.82493e-13 -7.15625e-14 -9.60528e-13 -2.3123e-12 -1.0608e-13 -2.23911e-12 -3.99875e-12 -1.81292e-13 -3.8763e-12 -2.30352e-12 -1.04958e-13 -2.24865e-12 7.73091 5.47488 0.417314 -2.31231e-12 -1.05952e-13 -2.24547e-12 2.90554 0.965183 0.102902 -2.30536e-12 -1.05853e-13 -2.24388e-12 10.2786 0.731801 0.0259123 -2.31882e-12 -1.05356e-13 -2.23275e-12 2.22167 -0.733487 -0.20892 -4.83236e-17 -8.54153e-18 -3.97569e-16 -7.54198e-15 -8.57259e-16 -5.56597e-15 -8.84592e-14 -4.11484e-14 -8.5875e-14 -9.95296e-13 -3.57067e-14 -9.41444e-13 -2.34903e-12 -1.59444e-13 -2.23911e-12 -4.05401e-12 -2.79889e-13 -3.85642e-12 -2.35401e-12 -1.59028e-13 -2.22957e-12 -7.73091 5.47488 -0.417314 -2.35018e-12 -1.59425e-13 -2.24229e-12 -2.90554 0.965183 -0.102902 -2.35746e-12 -1.5873e-13 -2.23434e-12 -10.2786 0.731801 -0.0259123 -2.34168e-12 -1.57835e-13 -2.24547e-12 -2.22167 -0.733487 0.20892 -2.03217e-16 0.0 -3.88251e-19 1.24885 -5.45297 -0.109165 6.90485e-05 4.32233 0.0238785 -0.5107 1.12952 0.0812379 2.03217e-16 0.0 3.88251e-19 0.249694 -1.91924 0.0129228 0.00928348 -2.07855 0.0766828 0.496228 3.99654 -0.137941
-24.9858 83.9566 8.68775 148.196 73.9419 151.356 -0.917243 0.231243 -0.0471371 1.71094 1.29503 -0.0172685 -0.91875 -1.80337 0.214009 -0.34751 2.74522 1.02633 -0.0 0.0 0.0 -0.0 0.0 0.0 5.79499e-14 6.1212e-14 1.39301e-13 21.3482 2.06072 1.21323 -3.20123 -1.29775 5.15748 -0.000141694 -0.0776671 -0.0109186 -1.32853e-09 -8.89552e-10 6.90431e-10 -2.29574e-09 -1.54092e-09 1.19591e-09 -1.32852e-09 -8.89551e-10 6.90421e-10 7.73091 5.47488 0.417314 -1.32853e-09 -8.89551e-10 6.90425e-10 2.90554 0.965183 0.102902 -1.32853e-09 -8.89551e-10 6.90427e-10 10.2786 0.731801 0.0259123 -1.32854e-09 -8.8955e-10 6.90437e-10 2.22167 -0.733487 -0.20892 5.79376e-14 6.12181e-14 1.38957e-13 -23.3219 6.92643 -1.32129 4.83425 -2.33442 -7.39516 -0.0301993 -3.85831 0.537825 -1.35535e-09 8.0832e-10 1.34513e-10 -2.34543e-09 1.39107e-09 2.20877e-10 -1.35536e-09 8.0832e-10 1.34523e-10 -7.73091 5.47488 -0.417314 -1.35535e-09 8.0832e-10 1.34511e-10 -2.90554 0.965183 -0.102902 -1.35536e-09 8.08321e-10 1.34518e-10 -10.2786 0.731801 -0.0259123 -1.35535e-09 8.08322e-10 1.34507e-10 -2.22167 -0.733487 0.20892 -2.03217e-16 0.0 -3.88251e-19 -1.18497 -6.64725 -1.27138 0.044645 10.8086 0.194702 -1.16216 -5.35451 -5.32408 2.03217e-16 0.0 3.88251e-19 2.08452 -5.6597 3.35678 0.000832428 6.47632 -0.0553882 0.531664 3.34409 2.28849
-24.7755 84.0313 8.64676 148.451 73.9053 151.617 -2.93174 0.499356 -0.122769 3.23875 2.6704 -0.0843967 -1.87871 -3.72651 0.43755 -0.800611 5.67249 2.11407 -0.0 0.0 0.0 -0.0 0.0 0.0 1.22264e-13 1.29822e-13 2.92468e-13 43.826 4.206 2.5085 -6.3266 -2.63106 10.6087 -0.000424626 -0.128039 -0.0180034 -2.78679e-09 -1.85591e-09 1.50997e-09 -4.81562e-09 -3.21492e-09 2.61525e-09 -2.78678e-09 -1.85591e-09 1.50996e-09 7.73091 5.47488 0.417314 -2.78679e-09 -1.85591e-09 1.50996e-09 2.90554 0.965183 0.102902 -2.78678e-09 -1.85591e-09 1.50997e-09 10.2786 0.731801 0.0259123 -2.78679e-09 -1.85591e-09 1.50998e-09 2.22167 -0.733487 -0.20892 1.22237e-13 1.29831e-13 2.92182e-13 -47.615 14.2481 -2.79885 9.30236 -4.67808 -15.2628 0.0174093 -7.95013 1.11654 -2.86045e-09 1.69633e-09 2.45708e-10 -4.94973e-09 2.91913e-09 4.00115e-10 -2.86045e-09 1.69633e-09 2.45718e-10 -7.73091 5.47488 -0.417314 -2.86045e-09 1.69633e-09 2.45706e-10 -2.90554 0.965183 -0.102902 -2.86045e-09 1.69633e-09 2.45712e-10 -10.2786 0.731801 -0.0259123 -2.86045e-09 1.69633e-09 2.45701e-10 -2.22167 -0.733487 0.20892 -2.03217e-16 0.0 -3.88251e-19 -3.81123 -7.91753 -2.51229 0.0476503 17.7032 0.386906 -3.20347 -12.0333 -11.2513 2.03217e-16 0.0 3.88251e-19 4.50799 -9.56124 7.0161 0.0364111 15.6284 -0.201936 0.619289 2.74449 4.77828
-24.6107 84.1313 8.57848 148.308 73.945 151.601 -4.7186 0.702448 -0.195928 4.59849 3.89419 -0.146219 -2.71568 -5.40981 0.644581 -1.34003 8.22502 3.10746 -0.0 0.0 0.0 -0.0 0.0 0.0 1.73952e-13 1.8366e-13 4.17902e-13 63.7816 6.17103 3.65857 -8.91099 -3.76727 15.5028 -0.000513887 -0.233001 -0.032756 -3.98097e-09 -2.66844e-09 2.07577e-09 -6.87922e-09 -4.6224e-09 3.5955e-09 -3.98096e-09 -2.66844e-09 2.07576e-09 7.73091 5.47488 0.417314 -3.98097e-09 -2.66844e-09 2.07576e-09 2.90554 0.965183 0.102902 -3.98097e-09 -2.66844e-09 2.07577e-09 10.2786 0.731801 0.0259123 -3.98098e-09 -2.66844e-09 2.07578e-09 2.22167 -0.733487 -0.20892 1.73909e-13 1.83671e-13 4.17668e-13 -68.9519 20.7335 -4.2079 12.7353 -6.53762 -22.3198 0.130511 -11.5708 1.64322 -4.06137e-09 2.42528e-09 4.08019e-10 -7.02819e-09 4.17378e-09 6.70345e-10 -4.06137e-09 2.42528e-09 4.08028e-10 -7.73091 5.47488 -0.417314 -4.06136e-09 2.42528e-09 4.08018e-10 -2.90554 0.965183 -0.102902 -4.06137e-09 2.42528e-09 4.08022e-10 -10.2786 0.731801 -0.0259123 -4.06137e-09 2.42528e-09 4.08012e-10 -2.22167 -0.733487 0.20892 -2.03217e-16 0.0 -3.88251e-19 -6.19959 -9.02297 -3.61597 0.00789582 23.7804 0.574936 -6.23047 -17.6494 -16.8815 2.03217e-16 0.0 3.88251e-19 7.08644 -12.9662 10.2597 0.10975 23.5857 -0.347389 0.768286 2.03133 7.1335
